<?xml version="1.0" encoding="utf-8"?>
<!-- Generator: Adobe Illustrator 19.1.0, SVG Export Plug-In . SVG Version: 6.00 Build 0)  -->
<svg version="1.1" id="Layer_1" xmlns="http://www.w3.org/2000/svg" xmlns:xlink="http://www.w3.org/1999/xlink" x="0px" y="0px"
	 viewBox="-63 63.7 14.7 15" style="enable-background:new -63 63.7 14.7 15;" xml:space="preserve">
<style type="text/css">
	.st0{fill:#EE3224;}
</style>
<path class="st0" d="M-62.8,68.1c0-1.1,0.9-2,2-2s2,0.9,2,2s-0.9,2-2,2S-62.8,69.2-62.8,68.1L-62.8,68.1z M-54,70
	c-0.3-0.2-0.7-0.1-0.9,0.2l-1.3,2.2l-1.9-1c-0.7-0.6-1.6-0.8-2.5-0.8H-61c-2.4,0.3-2,2.2-2,2.2l0.3,6h4.2l-0.2-6l2.3,1.1
	c0.1,0.1,0.2,0.1,0.3,0.1c0.2,0,0.4-0.1,0.6-0.3l1.7-2.7C-53.6,70.6-53.7,70.2-54,70z M-59.4,69.7c-0.1,0.1-0.3,0.2-0.5,0.3v0.4
	c0.2,0,0.3,0,0.5,0.1V69.7z M-48.3,63.7h-11.5v2.4c0.2,0.1,0.3,0.2,0.5,0.3v-2.3h10.6v7.2h-5.1l-0.3,0.5h5.9V63.7z M-56.2,71.9
	l0.3-0.5h-1.5l0.9,0.5H-56.2z M-52.2,67.1l-0.2-0.1l-1.6,2.8l0.2,0.1L-52.2,67.1z"/>
</svg>
