<?xml version="1.0" encoding="utf-8"?>
<!-- Generator: Adobe Illustrator 19.1.0, SVG Export Plug-In . SVG Version: 6.00 Build 0)  -->
<svg version="1.1" id="Layer_1" xmlns="http://www.w3.org/2000/svg" xmlns:xlink="http://www.w3.org/1999/xlink" x="0px" y="0px"
	 viewBox="-27 20.7 86.9 100" style="enable-background:new -27 20.7 86.9 100;" xml:space="preserve">
<style type="text/css">
	.st0{fill:#EE3224;}
</style>
<path class="st0" d="M36,82.3c-2.2,0-3.9,1.8-3.9,3.9c0,2.2,1.8,3.9,3.9,3.9c2.2,0,3.9-1.8,3.9-3.9C39.9,84.1,38.2,82.3,36,82.3z"/>
<path class="st0" d="M-20.5,82.3c-2.2,0-3.9,1.8-3.9,3.9c0,2.2,1.8,3.9,3.9,3.9c2.2,0,3.9-1.8,3.9-3.9
	C-16.6,84.1-18.4,82.3-20.5,82.3z"/>
<path class="st0" d="M24.3,75.2c-3.2,0-5.8,2.6-5.8,5.8c0,3.2,2.6,5.9,5.8,5.9c3.2,0,5.9-2.6,5.9-5.9C30.2,77.8,27.5,75.2,24.3,75.2
	z"/>
<path class="st0" d="M42.5,110.8h-6.7V98.5c0-2.1-0.6-4.1-1.6-5.8c0.6-0.2,1.2-0.3,1.8-0.3c3.6,0,6.5,2.9,6.5,6.5V110.8z"/>
<path class="st0" d="M-8.8,75.2c-3.2,0-5.8,2.6-5.8,5.8c0,3.2,2.6,5.9,5.8,5.9S-3,84.3-3,81C-3,77.8-5.6,75.2-8.8,75.2z"/>
<path class="st0" d="M-20.5,92.4c0.6,0,1.2,0.1,1.8,0.3c-1,1.7-1.6,3.7-1.6,5.8v12.3H-27V98.9C-27,95.3-24.1,92.4-20.5,92.4z"/>
<path class="st0" d="M7.7,63.5c-4.8,0-8.6,3.9-8.6,8.6c0,4.8,3.9,8.7,8.6,8.7s8.7-3.9,8.7-8.7C16.4,67.4,12.5,63.5,7.7,63.5z"/>
<path class="st0" d="M33.7,115.3H23.4V96.7c0-2.6-0.7-5-1.8-7.1c0.8-0.3,1.7-0.4,2.6-0.4c5.2,0,9.4,4.2,9.4,9.4L33.7,115.3
	L33.7,115.3z"/>
<path class="st0" d="M-8,96.7v18.7h-10.2V98.5c0-5.2,4.2-9.4,9.3-9.4c0.9,0,1.8,0.2,2.6,0.4C-7.3,91.7-8,94.1-8,96.7z"/>
<path class="st0" d="M-5.8,120.7h27.1V96.7c0-7.5-6.1-13.6-13.6-13.6c-7.5,0-13.6,6.1-13.6,13.6C-5.8,96.7-5.8,120.7-5.8,120.7z"/>
<path class="st0" d="M50,20.7H15.8c-5.4,0-9.9,4.4-9.9,9.9v16.2c0,5.5,4.4,9.9,9.9,9.9h3.5v12.9l12.9-12.9H50c5.4,0,9.9-4.4,9.9-9.9
	V30.6C59.9,25.2,55.5,20.7,50,20.7z M56.4,46.8c0,3.5-2.8,6.3-6.3,6.3H30.8l-7.9,7.9v-7.9h-7c-3.5,0-6.3-2.8-6.3-6.3V30.6
	c0-3.5,2.8-6.3,6.3-6.3H50c3.5,0,6.3,2.8,6.3,6.3C56.4,30.6,56.4,46.8,56.4,46.8z"/>
</svg>
