<?xml version="1.0" encoding="utf-8"?>
<!-- Generator: Adobe Illustrator 19.1.0, SVG Export Plug-In . SVG Version: 6.00 Build 0)  -->
<svg version="1.1" id="Layer_1" xmlns="http://www.w3.org/2000/svg" xmlns:xlink="http://www.w3.org/1999/xlink" x="0px" y="0px"
	 viewBox="-20 20.7 100 100" style="enable-background:new -20 20.7 100 100;" xml:space="preserve">
<style type="text/css">
	.st0{fill:#C02C2D;}
</style>
<path class="st0" d="M-20,20.7v100H80v-100H-20z M73.2,60.4H46.6V46.2h2.4h24.2L73.2,60.4L73.2,60.4z M44.5,79h-29V62.4h29V79z
	 M15.5,60.4V46.2h2.4h24.2h2.4v14.2H15.5z M11.1,46.2h2.4v14.2h-26.6V46.2H11.1z M13.5,62.4V79h-26.6V62.4H13.5z M-13.2,81.1h26.6
	v16.6h-26.6V81.1z M15.5,81.1h29v16.6h-29V81.1z M46.6,81.1h26.6v16.6H46.6V81.1z M46.6,79V62.4h26.6V79H46.6z M-13.2,113.9V99.7
	h26.6v14.2H-13.2z M15.5,113.9V99.7h29v14.2H15.5z M46.6,99.7h26.6v14.2H46.6V99.7z"/>
</svg>
