<?xml version="1.0" encoding="utf-8"?>
<!-- Generator: Adobe Illustrator 20.1.0, SVG Export Plug-In . SVG Version: 6.00 Build 0)  -->
<svg version="1.1" id="logo" xmlns="http://www.w3.org/2000/svg" xmlns:xlink="http://www.w3.org/1999/xlink" x="0px" y="0px"
	 viewBox="0 0 775 80" style="enable-background:new 0 0 775 80;" xml:space="preserve">
<style type="text/css">
	.st0{fill:#FFFFFF;}
	.st1{fill:#ED1C24;}
	.st2{fill:none;stroke:#ED1C24;stroke-width:2;}
</style>
<g>
	<g>
		<path d="M150.1,32.8H147V9.7h3.1V32.8z"/>
		<path d="M169.4,32.8h-2.8V22.4c0-2.9-0.8-4.4-3.6-4.4c-1.6,0-4.5,1-4.5,5.6v9.2h-2.8V15.9h2.7v2.4h0.1c0.6-0.9,2.2-2.9,5.1-2.9
			c2.6,0,5.9,1.1,5.9,5.9L169.4,32.8L169.4,32.8z"/>
		<path d="M177.8,18.3v11c0,1.3,1.1,1.3,1.7,1.3h1v2.2c-1,0.1-1.8,0.2-2.1,0.2c-2.8,0-3.4-1.6-3.4-3.6V18.3h-2.3v-2.4h2.3v-4.7h2.8
			v4.7h2.7v2.4H177.8z"/>
		<path d="M186.1,23c0-2.6,2.1-5,4.7-5c3.5,0,4.5,2.4,4.7,5H186.1z M195.4,27.5c-0.1,1.3-1.7,3.3-4.4,3.3c-3.3,0-4.9-2-4.9-5.5h12.3
			c0-6-2.4-9.8-7.3-9.8c-5.6,0-8.1,4.2-8.1,9.4c0,4.9,2.8,8.5,7.5,8.5c2.7,0,3.8-0.6,4.6-1.2c2.1-1.4,2.9-3.8,3-4.6L195.4,27.5
			L195.4,27.5z"/>
		<path d="M205.7,32.8h-2.8V15.9h2.7v2.8h0.1c1.1-2,2.6-3.3,4.7-3.3c0.4,0,0.5,0,0.7,0.1v2.9H210c-2.6,0-4.3,2.1-4.3,4.5V32.8z"/>
		<path d="M228.4,32.8h-2.8V22.4c0-2.9-0.8-4.4-3.6-4.4c-1.6,0-4.5,1-4.5,5.6v9.2h-2.8V15.9h2.7v2.4h0.1c0.6-0.9,2.2-2.9,5.1-2.9
			c2.6,0,5.9,1.1,5.9,5.9L228.4,32.8L228.4,32.8z"/>
		<path d="M243.5,27c0,2.3-2.6,4-5.2,4c-2.1,0-3.1-1.1-3.1-2.9c0-2.1,2.2-2.5,3.6-2.7c3.5-0.5,4.2-0.7,4.7-1.1V27z M235.8,21.1
			c0.2-1.3,0.6-3.3,3.9-3.3c2.7,0,4,1,4,2.7s-0.8,1.9-1.5,2l-4.7,0.6c-4.7,0.6-5.1,3.9-5.1,5.3c0,2.9,2.2,4.9,5.3,4.9
			c3.3,0,5-1.5,6.1-2.7c0.1,1.3,0.5,2.6,3,2.6c0.6,0,1.1-0.2,1.5-0.3v-2.1c-0.3,0.1-0.7,0.1-0.9,0.1c-0.6,0-0.9-0.3-0.9-1v-9.7
			c0-4.3-4.9-4.7-6.3-4.7c-4.2,0-6.8,1.6-7,5.6C233.2,21,235.8,21,235.8,21.1z"/>
		<path d="M255.3,18.3v11c0,1.3,1.1,1.3,1.7,1.3h1v2.2c-1,0.1-1.8,0.2-2.1,0.2c-2.8,0-3.4-1.6-3.4-3.6V18.3h-2.3v-2.4h2.3v-4.7h2.8
			v4.7h2.7v2.4H255.3z"/>
		<path d="M264.3,32.8h-2.8V15.9h2.8V32.8z M261.5,12.9V9.7h2.8v3.2H261.5z"/>
		<path d="M271.2,24.4c0-2.3,0.8-6.5,4.9-6.5s4.9,4.2,4.9,6.5s-0.8,6.5-4.9,6.5C272.1,30.8,271.2,26.6,271.2,24.4z M268.3,24.4
			c0,4.4,2.5,8.9,7.8,8.9c5.4,0,7.8-4.5,7.8-8.9s-2.5-8.9-7.8-8.9C270.7,15.4,268.3,20,268.3,24.4z"/>
		<path d="M301.6,32.8h-2.8V22.4c0-2.9-0.8-4.4-3.6-4.4c-1.6,0-4.5,1-4.5,5.6v9.2h-2.8V15.9h2.7v2.4h0.1c0.6-0.9,2.2-2.9,5.1-2.9
			c2.6,0,5.9,1.1,5.9,5.9v11.5H301.6z"/>
		<path d="M316.7,27c0,2.3-2.6,4-5.2,4c-2.1,0-3.1-1.1-3.1-2.9c0-2.1,2.2-2.5,3.6-2.7c3.5-0.5,4.2-0.7,4.7-1.1V27z M308.9,21.1
			c0.2-1.3,0.6-3.3,3.9-3.3c2.7,0,4,1,4,2.7s-0.8,1.9-1.5,2l-4.7,0.6c-4.7,0.6-5.1,3.9-5.1,5.3c0,2.9,2.2,4.9,5.3,4.9
			c3.3,0,5-1.5,6.1-2.7c0.1,1.3,0.5,2.6,3,2.6c0.6,0,1.1-0.2,1.5-0.3v-2.1c-0.3,0.1-0.7,0.1-0.9,0.1c-0.6,0-0.9-0.3-0.9-1v-9.7
			c0-4.3-4.9-4.7-6.3-4.7c-4.2,0-6.8,1.6-7,5.6C306.3,21,308.9,21,308.9,21.1z"/>
		<path d="M327.9,32.8H325V9.7h2.8v23.1H327.9z"/>
		<path d="M346.2,32.8h-3.1V9.7h16v2.8h-12.9v7.1h11.4v2.8h-11.4V32.8z"/>
		<path d="M364,23c0-2.6,2.1-5,4.7-5c3.5,0,4.5,2.4,4.7,5H364z M373.3,27.5c-0.1,1.3-1.7,3.3-4.4,3.3c-3.3,0-4.9-2-4.9-5.5h12.3
			c0-6-2.4-9.8-7.3-9.8c-5.6,0-8.1,4.2-8.1,9.4c0,4.9,2.8,8.5,7.5,8.5c2.7,0,3.8-0.6,4.6-1.2c2.1-1.4,2.9-3.8,3-4.6L373.3,27.5
			L373.3,27.5z"/>
		<path d="M382.3,24.3c0-2.2,0.2-6.3,4.6-6.3c4.1,0,4.5,4.4,4.5,7.2c0,4.5-2.8,5.7-4.6,5.7C383.8,30.8,382.3,28,382.3,24.3z
			 M394.4,9.7h-2.8v8.7h-0.1c-0.7-1-2-2.9-5-2.9c-4.5,0-7,3.7-7,8.4c0,4,1.7,9.4,7.4,9.4c1.6,0,3.6-0.5,4.8-2.8h0.1v2.3h2.7V9.7
			H394.4z"/>
		<path d="M401.2,23c0-2.6,2.1-5,4.7-5c3.5,0,4.5,2.4,4.7,5H401.2z M410.4,27.5c-0.1,1.3-1.7,3.3-4.4,3.3c-3.3,0-4.9-2-4.9-5.5h12.3
			c0-6-2.4-9.8-7.3-9.8c-5.6,0-8.1,4.2-8.1,9.4c0,4.9,2.8,8.5,7.5,8.5c2.7,0,3.8-0.6,4.6-1.2c2.1-1.4,2.9-3.8,3-4.6L410.4,27.5
			L410.4,27.5z"/>
		<path d="M420.8,32.8H418V15.9h2.7v2.8h0.1c1.1-2,2.6-3.3,4.7-3.3c0.4,0,0.5,0,0.7,0.1v2.9h-1.1c-2.6,0-4.3,2.1-4.3,4.5L420.8,32.8
			L420.8,32.8z"/>
		<path d="M438.9,27c0,2.3-2.6,4-5.2,4c-2.1,0-3.1-1.1-3.1-2.9c0-2.1,2.2-2.5,3.6-2.7c3.5-0.5,4.2-0.7,4.7-1.1V27z M431.1,21.1
			c0.2-1.3,0.6-3.3,3.9-3.3c2.7,0,4,1,4,2.7s-0.8,1.9-1.5,2l-4.7,0.6c-4.7,0.6-5.1,3.9-5.1,5.3c0,2.9,2.2,4.9,5.3,4.9
			c3.3,0,5-1.5,6.1-2.7c0.1,1.3,0.5,2.6,3,2.6c0.6,0,1.1-0.2,1.5-0.3v-2.1c-0.3,0.1-0.7,0.1-0.9,0.1c-0.6,0-0.9-0.3-0.9-1v-9.7
			c0-4.3-4.9-4.7-6.3-4.7c-4.2,0-6.8,1.6-7,5.6C428.5,21,431.1,21,431.1,21.1z"/>
		<path d="M450.7,18.3v11c0,1.3,1.1,1.3,1.7,1.3h1v2.2c-1,0.1-1.8,0.2-2.1,0.2c-2.8,0-3.4-1.6-3.4-3.6V18.3h-2.3v-2.4h2.3v-4.7h2.8
			v4.7h2.7v2.4H450.7z"/>
		<path d="M459.7,32.8h-2.8V15.9h2.8V32.8z M456.8,12.9V9.7h2.8v3.2H456.8z"/>
		<path d="M466.6,24.4c0-2.3,0.8-6.5,4.9-6.5s4.9,4.2,4.9,6.5s-0.8,6.5-4.9,6.5C467.4,30.8,466.6,26.6,466.6,24.4z M463.6,24.4
			c0,4.4,2.5,8.9,7.8,8.9c5.4,0,7.8-4.5,7.8-8.9s-2.5-8.9-7.8-8.9C466.1,15.4,463.6,20,463.6,24.4z"/>
		<path d="M496.9,32.8h-2.8V22.4c0-2.9-0.8-4.4-3.6-4.4c-1.6,0-4.5,1-4.5,5.6v9.2h-2.8V15.9h2.7v2.4h0.1c0.6-0.9,2.2-2.9,5.1-2.9
			c2.6,0,5.9,1.1,5.9,5.9v11.5H496.9z"/>
		<path d="M148.1,62.3c0-2.3,0.8-6.5,4.9-6.5c4.1,0,4.9,4.2,4.9,6.5s-0.8,6.5-4.9,6.5C148.9,68.8,148.1,64.6,148.1,62.3z
			 M145.1,62.3c0,4.4,2.5,8.9,7.8,8.9c5.4,0,7.8-4.5,7.8-8.9s-2.5-8.9-7.8-8.9C147.6,53.5,145.1,58,145.1,62.3z"/>
		<path d="M168.2,56.3v14.5h-2.8V56.3H163v-2.4h2.3v-2.9c0-2.5,1.6-3.7,4.4-3.7c0.4,0,0.8,0,1.3,0.1v2.5c-0.4,0-0.8-0.1-1.2-0.1
			c-1.2,0-1.7,0.6-1.7,2v2.1h2.8v2.4C170.9,56.2,168.2,56.2,168.2,56.3z"/>
		<path d="M187.8,50.3h7.8c1.5,0,4.2,0.3,4.2,3.9c0,3.4-2.4,4-4.7,4h-7.3V50.3z M187.8,60.8h7.6c3.7,0,4.1,2.2,4.1,4.1
			c0,0.9,0.1,4.4,0.5,5.8h3.8v-0.5c-1-0.5-1.1-1-1.2-2.3l-0.2-4.2c-0.1-3.2-1.5-3.8-2.8-4.4c1.5-0.9,3.2-2.1,3.2-5.5
			c0-4.9-3.8-6.2-7.6-6.2h-10.7v23.2h3.1v-10H187.8z"/>
		<path d="M210.1,61c0-2.6,2.1-5,4.7-5c3.5,0,4.5,2.4,4.7,5H210.1z M219.3,65.5c-0.1,1.3-1.7,3.3-4.4,3.3c-3.3,0-4.9-2-4.9-5.5h12.3
			c0-6-2.4-9.8-7.3-9.8c-5.6,0-8.1,4.2-8.1,9.4c0,4.9,2.8,8.5,7.5,8.5c2.7,0,3.8-0.6,4.6-1.2c2.1-1.4,2.9-3.8,3-4.6h-2.7V65.5z"/>
		<path d="M228.4,62.3c0-2.2,0.2-6.3,4.6-6.3c4.1,0,4.5,4.4,4.5,7.2c0,4.5-2.8,5.7-4.6,5.7C229.8,68.8,228.4,66,228.4,62.3z
			 M240.4,47.7h-2.8v8.7h-0.1c-0.7-1-2-2.9-5-2.9c-4.5,0-7,3.7-7,8.4c0,4,1.7,9.4,7.4,9.4c1.6,0,3.6-0.5,4.8-2.8h0.1v2.3h2.7
			L240.4,47.7L240.4,47.7z"/>
		<path d="M271.2,54.6c-0.9-4.1-4.3-4.8-6.5-4.8c-4.2,0-7.6,3.1-7.6,9.2c0,5.5,1.9,9.6,7.7,9.6c2,0,5.5-1,6.6-6.4h3
			c-1.3,8.7-8.4,9.1-10.1,9.1c-5.3,0-10.4-3.4-10.4-12.3c0-7.1,4.1-12.1,10.8-12.1c6,0,9.1,3.7,9.5,7.6h-3V54.6z"/>
		<path d="M281.8,70.8H279V53.8h2.7v2.8h0.1c1.1-2,2.6-3.3,4.7-3.3c0.4,0,0.5,0,0.7,0.1v2.9h-1.1c-2.6,0-4.3,2.1-4.3,4.5L281.8,70.8
			L281.8,70.8z"/>
		<path d="M291.9,62.3c0-2.3,0.8-6.5,4.9-6.5s4.9,4.2,4.9,6.5s-0.8,6.5-4.9,6.5C292.7,68.8,291.9,64.6,291.9,62.3z M289,62.3
			c0,4.4,2.5,8.9,7.8,8.9c5.4,0,7.8-4.5,7.8-8.9s-2.5-8.9-7.8-8.9C291.4,53.5,289,58,289,62.3z"/>
		<path d="M318.1,58.8c0-1.1-0.4-2.8-4-2.8c-0.9,0-3.4,0.3-3.4,2.4c0,1.4,0.9,1.7,3.1,2.3l2.8,0.7c3.5,0.9,4.7,2.2,4.7,4.5
			c0,3.5-2.9,5.6-6.7,5.6c-6.7,0-7.2-3.9-7.3-5.9h2.7c0.1,1.3,0.5,3.5,4.5,3.5c2,0,3.9-0.8,3.9-2.7c0-1.4-0.9-1.8-3.4-2.4l-3.3-0.8
			c-2.4-0.6-3.9-1.8-3.9-4.1c0-3.7,3.1-5.4,6.4-5.4c6,0,6.5,4.5,6.5,5.3h-2.6V58.8z"/>
		<path d="M334.9,58.8c0-1.1-0.4-2.8-4-2.8c-0.9,0-3.4,0.3-3.4,2.4c0,1.4,0.9,1.7,3.1,2.3l2.8,0.7c3.5,0.9,4.7,2.2,4.7,4.5
			c0,3.5-2.9,5.6-6.7,5.6c-6.7,0-7.2-3.9-7.3-5.9h2.7c0.1,1.3,0.5,3.5,4.5,3.5c2,0,3.9-0.8,3.9-2.7c0-1.4-0.9-1.8-3.4-2.4l-3.3-0.8
			c-2.4-0.6-3.9-1.8-3.9-4.1c0-3.7,3.1-5.4,6.4-5.4c6,0,6.5,4.5,6.5,5.3h-2.6V58.8z"/>
		<path d="M362,65c0,2.3-2.6,4-5.2,4c-2.1,0-3.1-1.1-3.1-2.9c0-2.1,2.2-2.5,3.6-2.7c3.5-0.5,4.2-0.7,4.7-1.1V65z M354.2,59.1
			c0.2-1.3,0.6-3.3,3.9-3.3c2.7,0,4,1,4,2.7s-0.8,1.9-1.5,2l-4.7,0.6c-4.7,0.6-5.1,3.9-5.1,5.3c0,2.9,2.2,4.9,5.3,4.9
			c3.3,0,5-1.5,6.1-2.7c0.1,1.3,0.5,2.6,3,2.6c0.6,0,1.1-0.2,1.5-0.3v-2.2c-0.3,0.1-0.7,0.1-0.9,0.1c-0.6,0-0.9-0.3-0.9-1v-9.7
			c0-4.3-4.9-4.7-6.3-4.7c-4.2,0-6.8,1.6-7,5.6L354.2,59.1L354.2,59.1z"/>
		<path d="M384,70.8h-2.8V60.3c0-2.9-0.8-4.4-3.6-4.4c-1.6,0-4.5,1-4.5,5.6v9.2h-2.8V53.8h2.7v2.4h0.1c0.6-0.9,2.2-2.9,5.1-2.9
			c2.6,0,5.9,1.1,5.9,5.9v11.5H384z"/>
		<path d="M390.8,62.3c0-2.2,0.2-6.3,4.6-6.3c4.1,0,4.5,4.4,4.5,7.2c0,4.5-2.8,5.7-4.6,5.7C392.2,68.8,390.8,66,390.8,62.3z
			 M402.8,47.7H400v8.7h-0.1c-0.7-1-2-2.9-5-2.9c-4.5,0-7,3.7-7,8.4c0,4,1.7,9.4,7.4,9.4c1.6,0,3.6-0.5,4.8-2.8h0.1v2.3h2.7V47.7
			H402.8z"/>
		<path d="M420.9,50.3h7.8c1.5,0,4.2,0.3,4.2,3.9c0,3.4-2.4,4-4.7,4h-7.3V50.3z M420.9,60.8h7.6c3.7,0,4.1,2.2,4.1,4.1
			c0,0.9,0.1,4.4,0.5,5.8h3.8v-0.5c-1-0.5-1.1-1-1.2-2.3l-0.2-4.2c-0.1-3.2-1.5-3.8-2.8-4.4c1.5-0.9,3.2-2.1,3.2-5.5
			c0-4.9-3.8-6.2-7.6-6.2h-10.7v23.2h3.1v-10H420.9z"/>
		<path d="M443.2,61c0-2.6,2.1-5,4.7-5c3.5,0,4.5,2.4,4.7,5H443.2z M452.4,65.5c-0.1,1.3-1.7,3.3-4.4,3.3c-3.3,0-4.9-2-4.9-5.5h12.3
			c0-6-2.4-9.8-7.3-9.8c-5.6,0-8.1,4.2-8.1,9.4c0,4.9,2.8,8.5,7.5,8.5c2.7,0,3.8-0.6,4.6-1.2c2.1-1.4,2.9-3.8,3-4.6h-2.7V65.5z"/>
		<path d="M461.5,62.3c0-2.2,0.2-6.3,4.6-6.3c4.1,0,4.5,4.4,4.5,7.2c0,4.5-2.8,5.7-4.6,5.7C462.9,68.8,461.5,66,461.5,62.3z
			 M473.5,47.7h-2.8v8.7h-0.1c-0.7-1-2-2.9-5-2.9c-4.5,0-7,3.7-7,8.4c0,4,1.7,9.4,7.4,9.4c1.6,0,3.6-0.5,4.8-2.8h0.1v2.3h2.7V47.7
			H473.5z"/>
		<path d="M504.3,54.6c-0.9-4.1-4.3-4.8-6.5-4.8c-4.2,0-7.6,3.1-7.6,9.2c0,5.5,1.9,9.6,7.7,9.6c2,0,5.5-1,6.6-6.4h3
			c-1.3,8.7-8.4,9.1-10.1,9.1c-5.3,0-10.4-3.4-10.4-12.3c0-7.1,4.1-12.1,10.8-12.1c6,0,9.1,3.7,9.5,7.6h-3V54.6z"/>
		<path d="M514.9,70.8H512V53.8h2.7v2.8h0.1c1.1-2,2.6-3.3,4.7-3.3c0.4,0,0.5,0,0.7,0.1v2.9h-1.1c-2.6,0-4.3,2.1-4.3,4.5L514.9,70.8
			L514.9,70.8z"/>
		<path d="M525.3,61c0-2.6,2.1-5,4.7-5c3.5,0,4.5,2.4,4.7,5H525.3z M534.5,65.5c-0.1,1.3-1.7,3.3-4.4,3.3c-3.3,0-4.9-2-4.9-5.5h12.3
			c0-6-2.4-9.8-7.3-9.8c-5.6,0-8.1,4.2-8.1,9.4c0,4.9,2.8,8.5,7.5,8.5c2.7,0,3.8-0.6,4.6-1.2c2.1-1.4,2.9-3.8,3-4.6h-2.7V65.5z"/>
		<path d="M551.2,58.8c0-1.1-0.4-2.8-4-2.8c-0.9,0-3.4,0.3-3.4,2.4c0,1.4,0.9,1.7,3.1,2.3l2.8,0.7c3.5,0.9,4.7,2.2,4.7,4.5
			c0,3.5-2.9,5.6-6.7,5.6c-6.7,0-7.2-3.9-7.3-5.9h2.7c0.1,1.3,0.5,3.5,4.5,3.5c2,0,3.9-0.8,3.9-2.7c0-1.4-0.9-1.8-3.4-2.4l-3.3-0.8
			c-2.4-0.6-3.9-1.8-3.9-4.1c0-3.7,3.1-5.4,6.4-5.4c6,0,6.5,4.5,6.5,5.3h-2.6V58.8z"/>
		<path d="M568.9,59.6c-0.4-2.3-1.6-3.6-4-3.6c-3.5,0-4.6,3.4-4.6,6.4c0,2.9,0.7,6.5,4.6,6.5c1.9,0,3.5-1.4,4-4h2.7
			c-0.3,2.7-1.9,6.5-6.9,6.5c-4.7,0-7.5-3.6-7.5-8.5c0-5.2,2.5-9.4,8.1-9.4c4.4,0,6.1,3.2,6.3,6.2L568.9,59.6L568.9,59.6z"/>
		<path d="M577.4,61c0-2.6,2.1-5,4.7-5c3.5,0,4.5,2.4,4.7,5H577.4z M586.7,65.5c-0.1,1.3-1.7,3.3-4.4,3.3c-3.3,0-4.9-2-4.9-5.5h12.3
			c0-6-2.4-9.8-7.3-9.8c-5.6,0-8.1,4.2-8.1,9.4c0,4.9,2.8,8.5,7.5,8.5c2.7,0,3.8-0.6,4.6-1.2c2.1-1.4,2.9-3.8,3-4.6h-2.7V65.5z"/>
		<path d="M607.5,70.8h-2.8V60.3c0-2.9-0.8-4.4-3.6-4.4c-1.6,0-4.5,1-4.5,5.6v9.2h-2.8V53.8h2.7v2.4h0.1c0.6-0.9,2.2-2.9,5.1-2.9
			c2.6,0,5.9,1.1,5.9,5.9v11.5H607.5z"/>
		<path d="M615.8,56.3v11c0,1.3,1.1,1.3,1.7,1.3h1v2.2c-1,0.1-1.8,0.2-2.1,0.2c-2.8,0-3.4-1.6-3.4-3.6V56.3h-2.3v-2.4h2.3v-4.7h2.8
			v4.7h2.7v2.4H615.8z"/>
		<path d="M645.9,54.3c-0.2-3.6-3.1-4.7-5.7-4.7c-2,0-5.3,0.5-5.3,4.1c0,2,1.4,2.6,2.7,2.9l6.6,1.5c3,0.7,5.3,2.5,5.3,6.2
			c0,5.5-5.1,7-9.1,7c-4.3,0-6-1.3-7-2.2c-2-1.8-2.4-3.7-2.4-5.9h2.9c0,4.2,3.4,5.4,6.4,5.4c2.3,0,6.1-0.6,6.1-3.9
			c0-2.4-1.1-3.2-4.9-4.1l-4.7-1.1c-1.5-0.4-4.9-1.4-4.9-5.5c0-3.6,2.4-7.2,8-7.2c8.1,0,8.9,4.8,9,7.4L645.9,54.3L645.9,54.3z"/>
		<path d="M655.7,62.3c0-2.3,0.8-6.5,4.9-6.5c4.1,0,4.9,4.2,4.9,6.5s-0.8,6.5-4.9,6.5C656.5,68.8,655.7,64.6,655.7,62.3z
			 M652.7,62.3c0,4.4,2.5,8.9,7.8,8.9c5.4,0,7.8-4.5,7.8-8.9s-2.5-8.9-7.8-8.9C655.2,53.5,652.7,58,652.7,62.3z"/>
		<path d="M682.8,59.6c-0.4-2.3-1.6-3.6-4-3.6c-3.5,0-4.6,3.4-4.6,6.4c0,2.9,0.7,6.5,4.6,6.5c1.9,0,3.5-1.4,4-4h2.7
			c-0.3,2.7-1.9,6.5-6.9,6.5c-4.7,0-7.5-3.6-7.5-8.5c0-5.2,2.5-9.4,8.1-9.4c4.4,0,6.1,3.2,6.3,6.2L682.8,59.6L682.8,59.6z"/>
		<path d="M692,70.8h-2.8V53.8h2.8V70.8z M689.1,50.8v-3.2h2.8v3.2H689.1z"/>
		<path d="M699.1,61c0-2.6,2.1-5,4.7-5c3.5,0,4.5,2.4,4.7,5H699.1z M708.4,65.5c-0.1,1.3-1.7,3.3-4.4,3.3c-3.3,0-4.9-2-4.9-5.5h12.3
			c0-6-2.4-9.8-7.3-9.8c-5.6,0-8.1,4.2-8.1,9.4c0,4.9,2.8,8.5,7.5,8.5c2.7,0,3.8-0.6,4.6-1.2c2.1-1.4,2.9-3.8,3-4.6h-2.7V65.5z"/>
		<path d="M718.9,56.3v11c0,1.3,1.1,1.3,1.7,1.3h1v2.2c-1,0.1-1.8,0.2-2.1,0.2c-2.8,0-3.4-1.6-3.4-3.6V56.3h-2.3v-2.4h2.3v-4.7h2.8
			v4.7h2.7v2.4H718.9z"/>
		<path d="M728,70.8h-2.8V53.8h2.8V70.8z M725.1,50.8v-3.2h2.8v3.2H725.1z"/>
		<path d="M735.1,61c0-2.6,2.1-5,4.7-5c3.5,0,4.5,2.4,4.7,5H735.1z M744.4,65.5c-0.1,1.3-1.7,3.3-4.4,3.3c-3.3,0-4.9-2-4.9-5.5h12.3
			c0-6-2.4-9.8-7.3-9.8c-5.6,0-8.1,4.2-8.1,9.4c0,4.9,2.8,8.5,7.5,8.5c2.7,0,3.8-0.6,4.6-1.2c2.1-1.4,2.9-3.8,3-4.6h-2.7V65.5z"/>
		<path d="M761,58.8c0-1.1-0.4-2.8-4-2.8c-0.9,0-3.4,0.3-3.4,2.4c0,1.4,0.9,1.7,3.1,2.3l2.8,0.7c3.5,0.9,4.7,2.2,4.7,4.5
			c0,3.5-2.9,5.6-6.7,5.6c-6.7,0-7.2-3.9-7.3-5.9h2.7c0.1,1.3,0.5,3.5,4.5,3.5c2,0,3.9-0.8,3.9-2.7c0-1.4-0.9-1.8-3.4-2.4l-3.3-0.8
			c-2.4-0.6-3.9-1.8-3.9-4.1c0-3.7,3.1-5.4,6.4-5.4c6,0,6.5,4.5,6.5,5.3H761V58.8z"/>
	</g>
	<g>
		<rect x="10.8" y="4.8" class="st0" width="123" height="70.5"/>
		<g>
			<polygon class="st1" points="42,47.2 26,47.2 26,33.5 42,33.5 42,33.5 42,17.5 55.7,17.5 55.7,33.5 55.7,33.5 71.7,33.5 
				71.7,47.2 55.7,47.2 55.7,47.2 55.7,63.2 42,63.2 			"/>
			<g>
				<path class="st1" d="M92.9,40.1c0-10.7,8.6-19.3,19.3-19.3c2.4,0,4.6,0.4,6.7,1.2c-3.9-3.1-8.9-5-14.4-5
					c-12.8,0-23.2,10.4-23.2,23.2s10.4,23.2,23.2,23.2c5.6,0,10.7-2,14.8-5.3c-2.2,0.9-4.6,1.4-7.1,1.4
					C101.5,59.3,92.9,50.8,92.9,40.1z"/>
			</g>
			<rect x="16.1" y="10.1" class="st2" width="112.7" height="60.4"/>
		</g>
	</g>
</g>
</svg>
